<?xml version="1.0" standalone="no"?>
<!DOCTYPE svg PUBLIC "-//W3C//DTD SVG 20010904//EN"
 "http://www.w3.org/TR/2001/REC-SVG-20010904/DTD/svg10.dtd">
<svg version="1.0" xmlns="http://www.w3.org/2000/svg"
 width="1209.000000pt" height="1209.000000pt" viewBox="0 0 1209.000000 1209.000000"
 preserveAspectRatio="xMidYMid meet">
<metadata>
Created by potrace 1.14, written by Peter Selinger 2001-2017
</metadata>
<g transform="translate(0.000000,1209.000000) scale(0.100000,-0.100000)"
fill="#000000" stroke="none">
<path d="M7870 8958 c-1802 -49 -3572 -323 -4710 -728 -238 -84 -519 -202
-655 -275 -156 -83 -211 -116 -319 -187 -239 -159 -410 -321 -535 -507 -126
-186 -188 -451 -147 -625 36 -150 150 -296 283 -359 64 -30 75 -32 178 -32
102 0 113 2 157 28 81 47 76 103 -15 161 -108 69 -147 135 -147 247 0 69 12
105 62 189 245 405 803 761 1641 1046 967 328 2436 569 3907 639 69 3 148 8
175 10 28 2 154 7 280 10 127 3 259 8 295 10 36 2 240 5 454 5 214 1 400 6
414 11 22 8 24 14 19 48 -7 53 -62 135 -136 204 -89 82 -128 99 -236 104 -160
8 -714 8 -965 1z"/>
<path d="M5247 8126 c-56 -21 -84 -45 -389 -340 -285 -275 -402 -396 -713
-736 -335 -366 -765 -828 -925 -995 -297 -310 -586 -647 -960 -1120 -134 -171
-251 -316 -260 -322 -16 -14 -94 -39 -415 -133 -701 -207 -1013 -393 -1051
-626 -5 -32 -2 -45 12 -58 33 -33 100 -15 434 119 435 175 535 212 613 225 38
7 70 10 73 7 3 -2 -53 -85 -124 -184 -269 -374 -409 -585 -616 -930 -119 -199
-128 -222 -128 -301 0 -50 6 -75 31 -127 51 -103 120 -144 247 -145 56 0 80 5
122 26 71 35 89 62 314 464 60 107 123 218 141 245 46 73 284 402 570 785 137
184 270 363 296 397 54 74 29 65 366 132 268 53 414 71 592 71 100 0 115 2
133 20 37 37 18 115 -41 164 l-33 28 -296 -5 c-162 -3 -317 -10 -345 -15 -27
-6 -52 -8 -54 -6 -2 2 4 16 14 31 16 24 390 479 405 493 3 3 48 57 100 120 51
63 121 147 155 185 139 158 405 458 511 576 63 70 429 439 815 820 387 384
712 713 726 737 52 87 41 236 -23 311 -67 77 -210 120 -297 87z"/>
<path d="M7360 8094 c-314 -27 -769 -192 -1197 -435 -539 -305 -861 -547
-1239 -930 -300 -306 -447 -484 -608 -738 -323 -510 -515 -1013 -590 -1546
-62 -435 -45 -747 59 -1090 101 -334 251 -555 492 -728 168 -121 415 -183 633
-158 234 26 402 101 603 268 97 81 127 130 127 206 0 68 -9 94 -52 142 -42 49
-99 75 -166 75 -66 0 -102 -15 -174 -74 -128 -104 -264 -156 -413 -156 -263 0
-462 151 -582 440 -71 171 -97 331 -97 605 -1 299 20 418 141 830 31 105 64
199 75 210 18 20 33 20 813 23 781 3 795 3 795 -16 0 -11 -31 -134 -69 -273
-66 -241 -93 -344 -140 -521 -35 -131 -26 -206 35 -276 61 -71 157 -108 237
-90 52 11 126 58 155 97 23 31 75 202 137 451 20 80 49 188 65 240 42 140 59
218 68 301 l7 74 352 3 352 2 10 -52 c6 -29 24 -127 41 -218 71 -381 141 -727
152 -755 18 -43 75 -103 121 -126 47 -25 120 -26 172 -5 95 40 145 108 146
199 0 29 -31 205 -70 392 -39 187 -82 401 -96 475 -13 74 -27 145 -30 156 -4
19 15 31 162 104 221 109 362 194 480 289 252 200 487 510 604 796 135 330
162 719 68 1006 -129 396 -460 687 -886 780 -84 18 -136 22 -373 24 -151 1
-295 1 -320 -1z m634 -474 c255 -65 445 -246 511 -486 22 -82 30 -279 16 -389
-68 -511 -566 -1051 -1111 -1203 -146 -41 -302 -66 -362 -58 -114 15 -218 79
-274 168 -33 51 -58 152 -51 203 4 22 28 124 55 225 27 102 66 250 87 330 51
197 160 596 191 700 42 138 97 233 189 326 115 117 236 177 410 204 86 13 247
4 339 -20z m-1675 -576 c27 -19 51 -71 51 -111 0 -25 -353 -1340 -362 -1349
-2 -2 -221 -4 -487 -4 l-482 -1 -54 25 c-75 34 -110 88 -110 170 0 38 7 74 18
96 33 67 432 512 586 654 443 410 737 592 840 520z"/>
<path d="M9455 5700 c-150 -23 -338 -106 -497 -220 -96 -69 -286 -263 -374
-381 -319 -430 -421 -805 -282 -1034 38 -64 105 -118 182 -147 116 -44 319
-26 496 44 146 57 333 174 501 314 43 35 80 64 83 64 3 0 6 -26 6 -57 0 -163
96 -309 238 -364 107 -42 325 -27 476 33 146 57 328 165 474 281 161 128 377
346 468 473 40 56 44 67 44 120 0 41 -6 69 -20 92 -37 61 -50 53 -289 -180
-313 -307 -517 -458 -710 -528 -106 -39 -218 -50 -273 -27 -135 56 -79 315
137 642 102 154 184 252 317 380 124 121 231 194 319 220 190 54 125 -118
-143 -381 -68 -66 -158 -148 -201 -182 -96 -76 -242 -164 -322 -194 -69 -25
-75 -31 -75 -74 0 -36 39 -81 77 -90 133 -34 424 133 704 404 178 171 246 268
321 457 24 60 28 157 9 205 -17 42 -65 96 -106 118 -39 22 -203 21 -299 -2
-331 -78 -676 -363 -919 -756 -47 -77 -257 -294 -413 -426 -240 -205 -492
-334 -651 -334 -112 0 -157 46 -155 156 1 76 23 154 77 269 197 423 682 899
851 835 24 -10 26 -14 21 -52 -9 -67 -100 -188 -254 -339 -194 -189 -372 -317
-512 -369 -72 -28 -81 -36 -81 -75 0 -41 39 -82 87 -91 149 -28 470 170 760
469 120 123 186 221 237 348 46 115 54 170 32 236 -16 49 -67 109 -114 133
-31 16 -152 21 -227 10z"/>
<path d="M2979 3529 c-35 -13 -45 -35 -75 -174 -41 -192 -44 -216 -27 -248 20
-39 49 -47 176 -47 142 0 181 -11 232 -64 67 -69 81 -147 41 -233 -33 -71 -87
-106 -170 -111 -75 -5 -122 15 -179 77 -46 49 -77 59 -123 38 -23 -12 -36 -26
-42 -49 -13 -51 -3 -76 52 -132 89 -88 194 -127 316 -115 91 8 170 47 241 120
77 78 103 143 103 264 1 83 -2 96 -33 160 -70 142 -177 214 -333 223 l-90 5 7
46 c4 25 12 52 17 59 7 8 43 12 113 12 57 0 111 3 120 6 26 10 48 62 41 99
-12 64 -30 70 -205 72 -86 1 -168 -2 -182 -8z"/>
<path d="M2228 3517 c-202 -76 -306 -268 -253 -470 35 -133 152 -248 281 -275
l37 -7 -73 -89 c-62 -75 -73 -94 -72 -124 2 -51 35 -82 87 -82 47 0 59 11 186
165 41 49 82 99 92 110 69 75 170 209 189 251 19 41 23 66 23 154 0 97 -2 110
-30 164 -40 79 -111 151 -182 184 -47 21 -75 27 -153 29 -63 2 -107 -1 -132
-10z m210 -186 c131 -67 151 -239 39 -338 -151 -132 -381 19 -327 214 15 51
65 107 114 129 46 20 130 17 174 -5z"/>
</g>
</svg>
